<svg xmlns="http://www.w3.org/2000/svg" version="1.1" width="1024" height="636">
<rect x="0" y="0" width="1024" height="636" fill="#605f5d" />
<g transform="scale(4.000000) translate(0.5 0.5)">
<polygon fill="#c3c4bf" fill-opacity="0.501961" points="201,174 33,94 202,39" />
<polygon fill="#000000" fill-opacity="0.501961" points="90,-16 5,174 -16,-3" />
<polygon fill="#b7b6b0" fill-opacity="0.501961" points="-16,87 138,130 271,88" />
<polygon fill="#000000" fill-opacity="0.501961" points="191,-16 260,-6 264,88" />
<polygon fill="#2d2c27" fill-opacity="0.501961" points="34,174 -16,95 105,103" />
<polygon fill="#f6f7f4" fill-opacity="0.501961" points="161,43 138,42 155,127" />
<polygon fill="#a3a4a2" fill-opacity="0.501961" points="183,174 101,169 94,20" />
<polygon fill="#141514" fill-opacity="0.501961" points="156,78 181,87 180,21" />
<polygon fill="#070804" fill-opacity="0.501961" points="119,40 13,-16 -16,44" />
<polygon fill="#242523" fill-opacity="0.501961" points="114,83 140,87 138,23" />
<polygon fill="#0a0b07" fill-opacity="0.501961" points="94,32 71,85 96,87" />
<polygon fill="#7b7a78" fill-opacity="0.501961" points="182,99 -16,94 209,163" />
<polygon fill="#1a1a16" fill-opacity="0.501961" points="271,85 271,156 202,171" />
<polygon fill="#1b1a16" fill-opacity="0.501961" points="39,104 -16,157 86,167" />
<polygon fill="#d5d4cf" fill-opacity="0.501961" points="116,125 115,40 94,51" />
<polygon fill="#21221f" fill-opacity="0.501961" points="205,86 271,-12 199,-6" />
<polygon fill="#98999b" fill-opacity="0.501961" points="93,-16 150,34 211,-15" />
<polygon fill="#f4f4ea" fill-opacity="0.501961" points="191,101 147,87 240,88" />
<polygon fill="#a2a19c" fill-opacity="0.501961" points="73,54 53,38 57,113" />
<polygon fill="#9f9e98" fill-opacity="0.501961" points="247,43 243,126 224,40" />
<polygon fill="#cac9c6" fill-opacity="0.501961" points="157,174 135,90 161,39" />
<polygon fill="#000000" fill-opacity="0.501961" points="262,86 246,30 245,87" />
<polygon fill="#f0efe5" fill-opacity="0.501961" points="59,87 104,100 152,87" />
<polygon fill="#000000" fill-opacity="0.501961" points="169,55 162,78 161,40" />
<polygon fill="#cacac8" fill-opacity="0.501961" points="181,41 203,47 198,113" />
<polygon fill="#3d3e3c" fill-opacity="0.501961" points="63,17 106,-6 80,81" />
<polygon fill="#000000" fill-opacity="0.501961" points="9,-16 -16,75 9,87" />
<polygon fill="#1f211c" fill-opacity="0.501961" points="223,87 224,40 205,86" />
<polygon fill="#51504c" fill-opacity="0.501961" points="97,115 -16,89 84,162" />
<polygon fill="#40403d" fill-opacity="0.501961" points="120,32 116,86 141,87" />
<polygon fill="#606162" fill-opacity="0.501961" points="212,-5 210,38 93,37" />
<polygon fill="#080804" fill-opacity="0.501961" points="29,43 51,85 51,41" />
<polygon fill="#959593" fill-opacity="0.501961" points="124,174 88,92 186,149" />
<polygon fill="#aaaa9f" fill-opacity="0.501961" points="20,84 -8,96 55,93" />
<polygon fill="#bababa" fill-opacity="0.501961" points="129,4 180,8 145,-16" />
<polygon fill="#050505" fill-opacity="0.501961" points="162,2 162,16 170,9" />
<polygon fill="#5d5b55" fill-opacity="0.501961" points="30,88 9,88 24,40" />
<polygon fill="#585855" fill-opacity="0.501961" points="205,91 254,124 194,174" />
<polygon fill="#161615" fill-opacity="0.501961" points="179,41 188,24 203,40" />
<polygon fill="#0d0e0b" fill-opacity="0.501961" points="2,16 110,10 -9,-16" />
<polygon fill="#c0c0b7" fill-opacity="0.501961" points="226,96 225,79 271,97" />
<polygon fill="#0d0e0a" fill-opacity="0.501961" points="269,-7 222,-5 271,85" />
<polygon fill="#cececb" fill-opacity="0.501961" points="156,43 140,42 139,98" />
<polygon fill="#040402" fill-opacity="0.501961" points="173,65 181,83 180,53" />
<polygon fill="#72726f" fill-opacity="0.501961" points="119,95 110,148 142,117" />
<polygon fill="#7a7b79" fill-opacity="0.501961" points="165,24 165,66 185,26" />
<polygon fill="#070707" fill-opacity="0.501961" points="139,17 132,10 139,3" />
<polygon fill="#0c0d0a" fill-opacity="0.501961" points="82,56 75,76 74,33" />
<polygon fill="#363636" fill-opacity="0.501961" points="184,30 152,41 121,31" />
<polygon fill="#a9a9a7" fill-opacity="0.501961" points="135,50 137,32 127,53" />
<polygon fill="#24231f" fill-opacity="0.501961" points="49,174 -16,147 50,102" />
<polygon fill="#b8b9b5" fill-opacity="0.501961" points="116,100 99,40 117,40" />
<polygon fill="#a0a0a0" fill-opacity="0.501961" points="140,37 169,13 154,36" />
<polygon fill="#6b6b69" fill-opacity="0.501961" points="159,115 180,92 180,131" />
<polygon fill="#1d1c17" fill-opacity="0.501961" points="159,80 163,86 179,87" />
<polygon fill="#878681" fill-opacity="0.501961" points="58,40 72,42 73,86" />
<polygon fill="#0a0a09" fill-opacity="0.501961" points="156,21 150,32 150,15" />
<polygon fill="#000000" fill-opacity="0.501961" points="105,30 117,31 115,38" />
<polygon fill="#adadae" fill-opacity="0.501961" points="139,20 127,26 127,40" />
<polygon fill="#6a6a66" fill-opacity="0.501961" points="61,146 54,107 98,94" />
<polygon fill="#a3a4a5" fill-opacity="0.501961" points="105,30 129,11 116,13" />
<polygon fill="#000001" fill-opacity="0.501961" points="197,11 188,3 182,11" />
<polygon fill="#1c1c1a" fill-opacity="0.501961" points="196,22 202,13 214,37" />
<polygon fill="#c6c7c3" fill-opacity="0.501961" points="138,41 158,41 162,103" />
<polygon fill="#12130f" fill-opacity="0.501961" points="52,86 31,41 33,87" />
<polygon fill="#545452" fill-opacity="0.501961" points="106,20 77,61 78,24" />
<polygon fill="#6a6a67" fill-opacity="0.501961" points="200,30 218,12 223,26" />
<polygon fill="#a6a7a8" fill-opacity="0.501961" points="118,29 127,29 108,15" />
<polygon fill="#ebeae3" fill-opacity="0.501961" points="191,87 147,99 121,87" />
<polygon fill="#8f8f8f" fill-opacity="0.501961" points="98,17 98,2 90,18" />
<polygon fill="#989a97" fill-opacity="0.501961" points="135,63 135,55 121,55" />
<polygon fill="#191a17" fill-opacity="0.501961" points="95,85 94,46 83,77" />
<polygon fill="#9c9c9c" fill-opacity="0.501961" points="182,10 198,26 169,10" />
<polygon fill="#71736f" fill-opacity="0.501961" points="91,70 75,75 92,58" />
<polygon fill="#000000" fill-opacity="0.501961" points="178,18 176,3 174,17" />
<polygon fill="#000000" fill-opacity="0.501961" points="119,45 131,43 126,36" />
<polygon fill="#131315" fill-opacity="0.501961" points="125,6 125,33 130,21" />
<polygon fill="#000000" fill-opacity="0.501961" points="140,13 145,10 140,6" />
<polygon fill="#a2a2a1" fill-opacity="0.501961" points="164,173 113,169 160,105" />
<polygon fill="#020202" fill-opacity="0.501961" points="163,26 162,41 169,31" />
<polygon fill="#000000" fill-opacity="0.501961" points="160,10 150,11 163,6" />
<polygon fill="#b8b9ba" fill-opacity="0.501961" points="100,8 110,6 120,-16" />
<polygon fill="#000000" fill-opacity="0.501961" points="118,50 122,66 117,77" />
<polygon fill="#07080a" fill-opacity="0.501961" points="113,-1 117,10 112,20" />
<polygon fill="#080908" fill-opacity="0.501961" points="179,52 171,42 182,37" />
<polygon fill="#08090b" fill-opacity="0.501961" points="100,26 99,12 106,20" />
<polygon fill="#c2c2c1" fill-opacity="0.501961" points="169,19 154,16 177,14" />
<polygon fill="#888888" fill-opacity="0.501961" points="197,10 181,36 164,38" />
<polygon fill="#999896" fill-opacity="0.501961" points="203,95 178,96 203,135" />
<polygon fill="#86867f" fill-opacity="0.501961" points="222,98 255,94 231,116" />
<polygon fill="#767672" fill-opacity="0.501961" points="221,54 205,73 217,69" />
<polygon fill="#23231f" fill-opacity="0.501961" points="249,100 271,174 245,169" />
<polygon fill="#272727" fill-opacity="0.501961" points="156,31 127,31 137,37" />
<polygon fill="#0c0c0a" fill-opacity="0.501961" points="165,51 179,54 158,56" />
<polygon fill="#100f10" fill-opacity="0.501961" points="171,31 179,34 188,30" />
<polygon fill="#7b7a77" fill-opacity="0.501961" points="137,84 121,82 133,65" />
<polygon fill="#b0ada9" fill-opacity="0.501961" points="100,115 94,93 129,94" />
<polygon fill="#000000" fill-opacity="0.501961" points="135,78 137,68 138,80" />
<polygon fill="#d4d2cd" fill-opacity="0.501961" points="212,94 182,90 182,71" />
<polygon fill="#131411" fill-opacity="0.501961" points="203,80 212,55 203,39" />
<polygon fill="#000000" fill-opacity="0.501961" points="113,24 120,33 112,29" />
<polygon fill="#363636" fill-opacity="0.501961" points="151,7 158,-8 144,-16" />
<polygon fill="#d0d0c6" fill-opacity="0.501961" points="40,89 71,96 71,87" />
<polygon fill="#bcbcbc" fill-opacity="0.501961" points="138,21 156,30 142,29" />
<polygon fill="#070603" fill-opacity="0.501961" points="168,75 161,65 161,86" />
<polygon fill="#aaaba9" fill-opacity="0.501961" points="135,35 125,34 133,42" />
<polygon fill="#898884" fill-opacity="0.501961" points="73,46 75,86 61,85" />
<polygon fill="#171717" fill-opacity="0.501961" points="189,22 174,16 170,22" />
<polygon fill="#1e1e1d" fill-opacity="0.501961" points="143,19 150,25 159,21" />
<polygon fill="#8b8c88" fill-opacity="0.501961" points="78,61 84,57 88,64" />
<polygon fill="#9e9e9e" fill-opacity="0.501961" points="167,28 182,31 152,9" />
<polygon fill="#43443f" fill-opacity="0.501961" points="40,69 46,45 48,85" />
<polygon fill="#31312f" fill-opacity="0.501961" points="36,40 100,-16 67,41" />
<polygon fill="#c8cbc7" fill-opacity="0.501961" points="122,55 123,59 119,63" />
<polygon fill="#000000" fill-opacity="0.501961" points="93,30 82,31 89,37" />
<polygon fill="#bdbdbd" fill-opacity="0.501961" points="125,34 122,23 121,40" />
<polygon fill="#8a8b86" fill-opacity="0.501961" points="166,59 174,72 164,74" />
<polygon fill="#0e0e0f" fill-opacity="0.501961" points="122,20 117,23 106,20" />
<polygon fill="#ffffff" fill-opacity="0.501961" points="149,14 147,12 145,18" />
<polygon fill="#000000" fill-opacity="0.501961" points="214,25 220,33 210,30" />
<polygon fill="#c3c3c3" fill-opacity="0.501961" points="115,5 113,-6 126,7" />
<polygon fill="#b8b8b8" fill-opacity="0.501961" points="177,5 193,-11 184,8" />
<polygon fill="#cacaca" fill-opacity="0.501961" points="137,17 129,18 127,12" />
<polygon fill="#1c1c1c" fill-opacity="0.501961" points="137,-16 126,5 112,-16" />
<polygon fill="#afafb0" fill-opacity="0.501961" points="190,-6 201,7 191,4" />
<polygon fill="#080804" fill-opacity="0.501961" points="75,80 84,87 75,87" />
<polygon fill="#aba9a6" fill-opacity="0.501961" points="95,86 115,87 97,41" />
<polygon fill="#2a2a2a" fill-opacity="0.501961" points="186,5 189,20 191,7" />
<polygon fill="#000000" fill-opacity="0.501961" points="175,24 177,33 178,22" />
<polygon fill="#000000" fill-opacity="0.501961" points="126,76 138,74 136,78" />
<polygon fill="#b4b4b1" fill-opacity="0.501961" points="200,37 192,37 194,34" />
<polygon fill="#000000" fill-opacity="0.501961" points="202,6 211,-16 190,-10" />
<polygon fill="#191919" fill-opacity="0.501961" points="178,4 187,-16 150,-16" />
<polygon fill="#000000" fill-opacity="0.501961" points="87,43 76,40 73,46" />
<polygon fill="#7e7d79" fill-opacity="0.501961" points="244,87 225,52 225,87" />
<polygon fill="#0b0b08" fill-opacity="0.501961" points="-2,-8 -1,43 48,32" />
<polygon fill="#b0afac" fill-opacity="0.501961" points="139,87 160,81 138,45" />
<polygon fill="#141413" fill-opacity="0.501961" points="131,70 137,43 138,64" />
<polygon fill="#898987" fill-opacity="0.501961" points="107,28 87,23 96,31" />
<polygon fill="#0a0a0a" fill-opacity="0.501961" points="149,38 138,37 132,43" />
<polygon fill="#828282" fill-opacity="0.501961" points="168,28 161,38 154,37" />
<polygon fill="#000000" fill-opacity="0.501961" points="121,21 125,26 124,17" />
<polygon fill="#292a27" fill-opacity="0.501961" points="224,5 196,9 252,20" />
<polygon fill="#1e1f1f" fill-opacity="0.501961" points="126,12 133,8 116,9" />
<polygon fill="#afafac" fill-opacity="0.501961" points="208,0 204,9 203,6" />
<polygon fill="#c4c5c0" fill-opacity="0.501961" points="214,62 210,61 208,57" />
<polygon fill="#41403b" fill-opacity="0.501961" points="52,97 10,109 17,143" />
<polygon fill="#807f7e" fill-opacity="0.501961" points="90,36 112,38 108,32" />
<polygon fill="#979797" fill-opacity="0.501961" points="149,37 138,31 143,38" />
<polygon fill="#474745" fill-opacity="0.501961" points="223,101 208,165 233,149" />
<polygon fill="#141414" fill-opacity="0.501961" points="124,32 149,32 137,28" />
<polygon fill="#3f3f3f" fill-opacity="0.501961" points="165,9 164,24 160,8" />
<polygon fill="#eaeaea" fill-opacity="0.501961" points="157,9 167,-6 163,-16" />
<polygon fill="#8f8e89" fill-opacity="0.501961" points="176,73 172,85 164,83" />
<polygon fill="#000000" fill-opacity="0.501961" points="172,63 174,66 165,65" />
<polygon fill="#a3a3a3" fill-opacity="0.501961" points="153,18 156,28 149,18" />
<polygon fill="#0a0a0a" fill-opacity="0.501961" points="160,31 167,43 161,41" />
<polygon fill="#010100" fill-opacity="0.501961" points="223,59 225,82 220,73" />
<polygon fill="#979799" fill-opacity="0.501961" points="96,3 112,15 105,18" />
<polygon fill="#91918f" fill-opacity="0.501961" points="213,45 210,35 209,52" />
<polygon fill="#74726d" fill-opacity="0.501961" points="208,78 206,84 222,85" />
<polygon fill="#2d2d2c" fill-opacity="0.501961" points="60,1 84,14 106,9" />
<polygon fill="#141414" fill-opacity="0.501961" points="202,17 214,22 189,22" />
<polygon fill="#000000" fill-opacity="0.501961" points="247,61 247,87 254,81" />
<polygon fill="#1c1b17" fill-opacity="0.501961" points="-1,109 -1,164 45,168" />
<polygon fill="#010102" fill-opacity="0.501961" points="112,-5 100,3 79,-16" />
<polygon fill="#242422" fill-opacity="0.501961" points="265,32 240,19 218,44" />
<polygon fill="#cdcdcd" fill-opacity="0.501961" points="143,6 155,9 134,-10" />
<polygon fill="#50514f" fill-opacity="0.501961" points="54,130 88,168 94,101" />
<polygon fill="#585956" fill-opacity="0.501961" points="242,23 229,31 214,27" />
<polygon fill="#828280" fill-opacity="0.501961" points="137,127 97,174 94,123" />
<polygon fill="#85847f" fill-opacity="0.501961" points="50,94 66,125 72,101" />
<polygon fill="#b8b8b8" fill-opacity="0.501961" points="126,-7 161,-16 128,9" />
<polygon fill="#000000" fill-opacity="0.501961" points="132,65 128,63 124,69" />
<polygon fill="#000000" fill-opacity="0.501961" points="113,6 107,9 113,3" />
<polygon fill="#000000" fill-opacity="0.501961" points="9,39 -13,91 8,84" />
<polygon fill="#b7b7b7" fill-opacity="0.501961" points="170,12 188,17 184,12" />
<polygon fill="#9fa09e" fill-opacity="0.501961" points="121,48 123,53 129,49" />
<polygon fill="#e6e6e5" fill-opacity="0.501961" points="158,19 152,8 154,17" />
<polygon fill="#b4b5b1" fill-opacity="0.501961" points="120,66 124,72 120,73" />
<polygon fill="#cbcbc7" fill-opacity="0.501961" points="135,58 136,64 133,59" />
<polygon fill="#000000" fill-opacity="0.501961" points="128,44 125,50 126,45" />
<polygon fill="#000000" fill-opacity="0.501961" points="193,32 203,32 199,30" />
<polygon fill="#787877" fill-opacity="0.501961" points="98,3 90,0 101,24" />
<polygon fill="#000000" fill-opacity="0.501961" points="93,47 85,54 76,55" />
<polygon fill="#111112" fill-opacity="0.501961" points="99,17 92,20 102,28" />
<polygon fill="#000000" fill-opacity="0.501961" points="177,38 172,42 177,35" />
<polygon fill="#7d7e7d" fill-opacity="0.501961" points="183,32 170,32 190,42" />
<polygon fill="#070804" fill-opacity="0.501961" points="122,74 118,68 119,84" />
<polygon fill="#000000" fill-opacity="0.501961" points="184,8 191,14 179,9" />
<polygon fill="#413f3a" fill-opacity="0.501961" points="31,42 9,81 12,41" />
<polygon fill="#000000" fill-opacity="0.501961" points="93,38 111,38 104,41" />
<polygon fill="#d7d7d7" fill-opacity="0.501961" points="139,16 140,21 144,12" />
<polygon fill="#76766f" fill-opacity="0.501961" points="17,102 -16,88 49,97" />
<polygon fill="#000000" fill-opacity="0.501961" points="155,9 151,9 149,11" />
<polygon fill="#989896" fill-opacity="0.501961" points="176,62 174,47 171,61" />
<polygon fill="#b1b1ad" fill-opacity="0.501961" points="206,18 207,15 202,12" />
<polygon fill="#000000" fill-opacity="0.501961" points="188,37 198,40 180,40" />
<polygon fill="#e6e6df" fill-opacity="0.501961" points="97,85 95,95 130,91" />
<polygon fill="#0d0d0e" fill-opacity="0.501961" points="82,8 88,15 97,9" />
</g>
</svg>